<?xml version="1.0" encoding="utf-8"?>
<!-- Uploaded to: SVG Repo, www.svgrepo.com, Generator: SVG Repo Mixer Tools -->
<svg width="800px" height="800px" viewBox="0 0 1024 1024" class="icon"  version="1.1" xmlns="http://www.w3.org/2000/svg"><path d="M191.6 404.7v145.9h34.3c1.1-12.3 11.4-21.9 23.9-21.9s22.9 9.6 23.9 21.9l439.2 21.9V467.2l-521.3-62.5z" fill="#D5D9CF" /><path d="M718.1 577.9l-449-22.4-0.4-4.5c-0.8-9.7-9.1-17.3-18.8-17.3s-18 7.6-18.8 17.3l-0.4 4.7h-44.1V398.9l531.6 63.7v115.3z m-440-32.2l429.7 21.5v-95.4l-511.1-61.2v135h24.9c3.3-12.6 14.9-21.9 28.3-21.9 13.4-0.2 25.1 9.3 28.2 22z" fill="#333336" /><path d="M627.6 531.8c0.8 5.4 1.2 10.9 1.2 16.6 0 46.1-28.6 85.6-69 101.6v33.3h254.1V531.8H627.6z" fill="#FFD632" /><path d="M819 688.5H554.7v-41.9l3.2-1.3c19.2-7.6 35.5-20.6 47.3-37.7 12.1-17.4 18.4-37.9 18.4-59.2 0-5.3-0.4-10.6-1.2-15.8l-0.9-5.9H819v161.8z m-254-10.3h243.8V536.9H633.4c0.4 3.8 0.6 7.6 0.6 11.4 0 23.4-7 45.9-20.3 65-12.3 17.7-29.1 31.5-48.8 40v24.9z" fill="#333336" /><path d="M321.2 661.6H191.6v-37.3c0-11.1 9-20.2 20.2-20.2H301c11.1 0 20.2 9 20.2 20.2v37.3z" fill="#D5D9CF" /><path d="M326.3 666.8H186.4V623c0-13.2 10.7-24 24-24h92c13.2 0 24 10.7 24 24v43.8z m-129.6-10.3h119.4V623c0-7.6-6.1-13.7-13.7-13.7h-92c-7.6 0-13.7 6.1-13.7 13.7v33.5z" fill="#333336" /><path d="M846.8 576.6l-678.7-136c-13.4-2.6-22.1-15.5-19.5-28.9 17.3-88.9 103.4-147 192.3-129.7l472.2 95.8c38.5 7.5 63.6 44.7 56.1 83.2l-22.4 115.6z" fill="#68A240" /><path d="M850.9 582.7l-5.1-1-678.7-136c-16.1-3.1-26.6-18.8-23.5-34.9 17.8-91.6 106.8-151.6 198.3-133.8l472.3 95.8c19.9 3.9 37.2 15.3 48.5 32.1 11.4 16.8 15.5 37.1 11.6 57.1l-23.4 120.7zM309.5 284.1c-74.5 0-141.2 52.8-155.9 128.6-2.1 10.6 4.9 20.8 15.4 22.9l673.7 135 21.5-110.5c3.4-17.3-0.2-34.8-10-49.4-9.8-14.6-24.8-24.5-42-27.8l-472.3-95.8c-10.2-2-20.3-3-30.4-3z" fill="#333336" /><path d="M826.3 744H180.8c-11.3 0-20.5-9.2-20.5-20.5V671c0-19.2 15.6-34.8 34.8-34.8h631.2c11.3 0 20.5 9.2 20.5 20.5v66.8c0 11.4-9.2 20.5-20.5 20.5z" fill="#FFD632" /><path d="M827.7 749.2H179.5c-13.4 0-24.2-10.9-24.2-24.2v-56.2c0-20.7 16.9-37.6 37.6-37.6h634.9c13.4 0 24.2 10.9 24.2 24.2v69.5c-0.1 13.4-10.9 24.3-24.3 24.3zM192.8 641.4c-15.1 0-27.3 12.2-27.3 27.3v56.2c0 7.7 6.3 14 14 14h648.2c7.7 0 14-6.3 14-14v-69.5c0-7.7-6.3-14-14-14H192.8z" fill="#333336" /><path d="M813.9 541.6m-62 0a62 62 0 1 0 124 0 62 62 0 1 0-124 0Z" fill="#D8A128" /><path d="M813.9 608.7c-37 0-67.1-30.1-67.1-67.1s30.1-67.1 67.1-67.1 67.1 30.1 67.1 67.1-30.1 67.1-67.1 67.1z m0-124c-31.3 0-56.9 25.5-56.9 56.9s25.5 56.9 56.9 56.9c31.3 0 56.9-25.5 56.9-56.9s-25.6-56.9-56.9-56.9z" fill="#333336" /><path d="M813.9 541.6m-26.3 0a26.3 26.3 0 1 0 52.6 0 26.3 26.3 0 1 0-52.6 0Z" fill="#F2F0E7" /><path d="M813.9 573c-17.3 0-31.5-14.1-31.5-31.5 0-17.3 14.1-31.5 31.5-31.5 17.3 0 31.5 14.1 31.5 31.5-0.1 17.4-14.2 31.5-31.5 31.5z m0-52.6c-11.7 0-21.2 9.5-21.2 21.2s9.5 21.2 21.2 21.2 21.2-9.5 21.2-21.2-9.5-21.2-21.2-21.2z" fill="#333336" /><path d="M160.3 704v18.5c0 12.4 10.1 22.5 22.5 22.5h641.5c12.4 0 22.5-10.1 22.5-22.5V704H160.3z" fill="#68A240" /><path d="M824.3 750.1H182.8c-15.2 0-27.6-12.4-27.6-27.6v-23.6h696.7v23.6c0 15.2-12.4 27.6-27.6 27.6z m-658.8-40.9v13.3c0 9.6 7.8 17.4 17.4 17.4h641.5c9.6 0 17.4-7.8 17.4-17.4v-13.3H165.5z" fill="#333336" /></svg>