<?xml version="1.0" encoding="utf-8"?>
<!-- Uploaded to: SVG Repo, www.svgrepo.com, Generator: SVG Repo Mixer Tools -->
<svg width="800px" height="800px" viewBox="0 0 1024 1024" class="icon"  version="1.1" xmlns="http://www.w3.org/2000/svg"><path d="M819.9 747.6H204.1c-21.8 0-39.5-17.7-39.5-39.5V278.4c0-21.8 17.7-39.5 39.5-39.5h615.7c21.8 0 39.5 17.7 39.5 39.5v429.7c0.1 21.9-17.6 39.5-39.4 39.5z" fill="#FFD632" /><path d="M819.9 753.1H204.1c-24.8 0-45-20.2-45-45V278.4c0-24.8 20.2-45 45-45h615.7c24.8 0 45 20.2 45 45v429.7c0.1 24.9-20.1 45-44.9 45zM204.1 244.4c-18.7 0-34 15.3-34 34v429.7c0 18.7 15.3 34 34 34h615.7c18.7 0 34-15.3 34-34V278.4c0-18.7-15.3-34-34-34H204.1z" fill="#333336" /><path d="M296.5 766.6h58.3v39.9c0 10.1-8.2 18.4-18.4 18.4h-21.6c-10.1 0-18.4-8.2-18.4-18.4v-39.9z" fill="#FFC86B" /><path d="M336.4 830.4h-21.6c-13.2 0-23.9-10.7-23.9-23.9v-45.4h69.3v45.4c0.1 13.2-10.6 23.9-23.8 23.9zM302 772.1v34.4c0 7.1 5.8 12.9 12.9 12.9h21.6c7.1 0 12.9-5.8 12.9-12.9v-34.4H302z" fill="#333336" /><path d="M441 315.3v-62.1c0-29.4-23.9-53.3-53.3-53.3H263.6c-29.4 0-53.3 23.9-53.3 53.3v62.1c0 24.7 7.8 47.6 21 66.4 6.5 9.2 9.9 20.3 9.9 31.5v160.2c0 11.3-3.4 22.3-9.9 31.5-13.2 18.8-21 41.7-21 66.4v63.1c0 28.9 23.4 52.3 52.3 52.3h126.2c28.9 0 52.3-23.4 52.3-52.3v-63.1c0-24.7-7.7-47.5-20.9-66.2-6.5-9.3-10-20.4-10-31.8v-160c0-11.4 3.4-22.5 10-31.8 13-18.8 20.8-41.6 20.8-66.2z" fill="#68A240" /><path d="M388.7 792.1H262.6c-31.8 0-57.8-25.9-57.8-57.8v-63.1c0-25.1 7.6-49.1 22-69.5 5.8-8.2 8.9-18 8.9-28.4V413.2c0-10.3-3.1-20.1-8.9-28.4-14.4-20.4-22-44.5-22-69.5v-62.1c0-32.4 26.4-58.8 58.8-58.8h124.1c32.4 0 58.8 26.4 58.8 58.8v62.1c0 25-7.6 49-21.9 69.4-5.9 8.3-9 18.2-9 28.7v159.9c0 10.4 3.1 20.3 9 28.7 14.3 20.4 21.9 44.4 21.9 69.4v63.1c0 31.7-25.9 57.6-57.8 57.6zM263.6 205.4c-26.3 0-47.8 21.4-47.8 47.8v62.1c0 22.8 6.9 44.6 20 63.2 7.1 10.1 10.9 22.1 10.9 34.7v160.2c0 12.6-3.8 24.6-10.9 34.7-13.1 18.6-20 40.4-20 63.2v63.1c0 25.8 21 46.8 46.8 46.8h126.2c25.8 0 46.8-21 46.8-46.8v-63.1c0-22.7-6.9-44.5-19.9-63.1-7.2-10.2-11-22.3-11-35V413.3c0-12.7 3.8-24.8 11-35 13-18.5 19.9-40.3 19.9-63.1v-62.1c0-26.3-21.4-47.8-47.8-47.8H263.6z" fill="#333336" /><path d="M780.6 437.5H495.4c-8 0-14.5-6.5-14.5-14.5V317.6c0-8 6.5-14.5 14.5-14.5h285.2c8 0 14.5 6.5 14.5 14.5V423c0 8-6.5 14.5-14.5 14.5z" fill="#D8A128" /><path d="M780.6 443H495.4c-11 0-20-9-20-20V317.6c0-11 9-20 20-20h285.2c11 0 20 9 20 20V423c0 11-8.9 20-20 20zM495.4 308.6c-5 0-9 4-9 9V423c0 5 4 9 9 9h285.2c5 0 9-4 9-9V317.6c0-5-4-9-9-9H495.4zM476.9 889.6c-2.1 0-4-1.2-5-3.2-0.8-1.6-19.7-39-79-19.6-23.1 7.5-41.3 6.6-54.3-2.8-18.3-13.2-18.5-38-18.5-39.1 0-3 2.5-5.5 5.5-5.5s5.5 2.5 5.5 5.5c0 0.3 0.3 20.4 14 30.2 10 7.2 24.9 7.6 44.4 1.2 19.6-6.4 48.1-11 71.8 3.8 14.5 9 20.3 21 20.5 21.5 1.3 2.7 0.1 6-2.6 7.3-0.8 0.5-1.6 0.7-2.3 0.7z m-145.7-64.7z" fill="#333336" /><path d="M550 570.9h-57.3c-4.7 0-8.6-3.8-8.6-8.6V505c0-4.7 3.8-8.6 8.6-8.6H550c4.7 0 8.6 3.8 8.6 8.6v57.3c-0.1 4.7-3.9 8.6-8.6 8.6z" fill="#D5D9CF" /><path d="M550 576.4h-57.3c-7.8 0-14.1-6.3-14.1-14.1V505c0-7.8 6.3-14.1 14.1-14.1H550c7.8 0 14.1 6.3 14.1 14.1v57.3c-0.1 7.8-6.4 14.1-14.1 14.1z m-57.3-74.5c-1.7 0-3.1 1.4-3.1 3.1v57.3c0 1.7 1.4 3.1 3.1 3.1H550c1.7 0 3.1-1.4 3.1-3.1V505c0-1.7-1.4-3.1-3.1-3.1h-57.3z" fill="#333336" /><path d="M667.3 570.9H610c-4.7 0-8.6-3.8-8.6-8.6V505c0-4.7 3.8-8.6 8.6-8.6h57.3c4.7 0 8.6 3.8 8.6 8.6v57.3c0 4.7-3.8 8.6-8.6 8.6z" fill="#D5D9CF" /><path d="M667.3 576.4H610c-7.8 0-14.1-6.3-14.1-14.1V505c0-7.8 6.3-14.1 14.1-14.1h57.3c7.8 0 14.1 6.3 14.1 14.1v57.3c0 7.8-6.3 14.1-14.1 14.1zM610 501.9c-1.7 0-3.1 1.4-3.1 3.1v57.3c0 1.7 1.4 3.1 3.1 3.1h57.3c1.7 0 3.1-1.4 3.1-3.1V505c0-1.7-1.4-3.1-3.1-3.1H610z" fill="#333336" /><path d="M784.7 570.9h-57.3c-4.7 0-8.6-3.8-8.6-8.6V505c0-4.7 3.8-8.6 8.6-8.6h57.3c4.7 0 8.6 3.8 8.6 8.6v57.3c0 4.7-3.9 8.6-8.6 8.6z" fill="#D5D9CF" /><path d="M784.7 576.4h-57.3c-7.8 0-14.1-6.3-14.1-14.1V505c0-7.8 6.3-14.1 14.1-14.1h57.3c7.8 0 14.1 6.3 14.1 14.1v57.3c0 7.8-6.3 14.1-14.1 14.1z m-57.3-74.5c-1.7 0-3.1 1.4-3.1 3.1v57.3c0 1.7 1.4 3.1 3.1 3.1h57.3c1.7 0 3.1-1.4 3.1-3.1V505c0-1.7-1.4-3.1-3.1-3.1h-57.3z" fill="#333336" /><path d="M550 691.6h-57.3c-4.7 0-8.6-3.8-8.6-8.6v-57.3c0-4.7 3.8-8.6 8.6-8.6H550c4.7 0 8.6 3.8 8.6 8.6V683c-0.1 4.8-3.9 8.6-8.6 8.6z" fill="#D5D9CF" /><path d="M550 697.1h-57.3c-7.8 0-14.1-6.3-14.1-14.1v-57.3c0-7.8 6.3-14.1 14.1-14.1H550c7.8 0 14.1 6.3 14.1 14.1V683c-0.1 7.8-6.4 14.1-14.1 14.1z m-57.3-74.4c-1.7 0-3.1 1.4-3.1 3.1v57.3c0 1.7 1.4 3.1 3.1 3.1H550c1.7 0 3.1-1.4 3.1-3.1v-57.3c0-1.7-1.4-3.1-3.1-3.1h-57.3z" fill="#333336" /><path d="M667.3 691.6H610c-4.7 0-8.6-3.8-8.6-8.6v-57.3c0-4.7 3.8-8.6 8.6-8.6h57.3c4.7 0 8.6 3.8 8.6 8.6V683c0 4.8-3.8 8.6-8.6 8.6z" fill="#D5D9CF" /><path d="M667.3 697.1H610c-7.8 0-14.1-6.3-14.1-14.1v-57.3c0-7.8 6.3-14.1 14.1-14.1h57.3c7.8 0 14.1 6.3 14.1 14.1V683c0 7.8-6.3 14.1-14.1 14.1zM610 622.7c-1.7 0-3.1 1.4-3.1 3.1v57.3c0 1.7 1.4 3.1 3.1 3.1h57.3c1.7 0 3.1-1.4 3.1-3.1v-57.3c0-1.7-1.4-3.1-3.1-3.1H610z" fill="#333336" /><path d="M784.7 691.6h-57.3c-4.7 0-8.6-3.8-8.6-8.6v-57.3c0-4.7 3.8-8.6 8.6-8.6h57.3c4.7 0 8.6 3.8 8.6 8.6V683c0 4.8-3.9 8.6-8.6 8.6z" fill="#68A240" /><path d="M784.7 697.1h-57.3c-7.8 0-14.1-6.3-14.1-14.1v-57.3c0-7.8 6.3-14.1 14.1-14.1h57.3c7.8 0 14.1 6.3 14.1 14.1V683c0 7.8-6.3 14.1-14.1 14.1z m-57.3-74.4c-1.7 0-3.1 1.4-3.1 3.1v57.3c0 1.7 1.4 3.1 3.1 3.1h57.3c1.7 0 3.1-1.4 3.1-3.1v-57.3c0-1.7-1.4-3.1-3.1-3.1h-57.3z" fill="#333336" /></svg>